<?xml version="1.0" encoding="utf-8"?>
<!-- Generator: Adobe Illustrator 16.0.0, SVG Export Plug-In . SVG Version: 6.00 Build 0)  -->
<!DOCTYPE svg PUBLIC "-//W3C//DTD SVG 1.1//EN" "http://www.w3.org/Graphics/SVG/1.1/DTD/svg11.dtd">
<svg version="1.1" id="Layer_1" xmlns="http://www.w3.org/2000/svg" xmlns:xlink="http://www.w3.org/1999/xlink" x="0px" y="0px"
	 width="800px" height="450px" viewBox="0 0 800 450" style="enable-background:new 0 0 800 450;" xml:space="preserve">
<rect x="-51.56836" y="-6.28418" style="fill:#2758A8;" width="903.13672" height="462.56836"/>
<g>
	<g>
		<path style="fill-rule:evenodd;clip-rule:evenodd;fill:#FFFFFF;" d="M120.33008,162.3916
			c-7.72412,0-13.45361,6.47363-13.45361,14.70264c0,8.73486,5.72949,15.20166,13.45361,15.20166
			c7.72949,0,13.21191-6.4668,13.21191-15.20166C133.54199,168.86523,128.05957,162.3916,120.33008,162.3916z M402.87012,162.3916
			c-7.72705,0-13.4668,6.47363-13.4668,14.70264c0,8.73486,5.73975,15.20166,13.4668,15.20166
			c7.22461,0,12.96484-6.4668,12.96484-15.20166C415.83496,168.86523,410.09473,162.3916,402.87012,162.3916z M354.00781,162.3916
			c-7.71973,0-13.45361,6.47363-13.45361,14.70264c0,8.73486,5.73389,15.20166,13.45361,15.20166
			c7.73047,0,13.21045-6.4668,13.21045-15.20166C367.21826,168.86523,361.73828,162.3916,354.00781,162.3916z M433.52734,232.64844
			c0-2.9917,1.24902-4.49268,3.73926-4.49268h11.21191c0.99512,0,1.50586-0.74023,1.50586-1.9834v-8.48486
			c0-1.24512-0.51074-2.00195-1.50586-2.00195h-48.1123c-0.99219,0-1.48535,0.75684-1.48535,2.00195v8.48486
			c0,1.24316,0.49316,1.9834,1.48535,1.9834h11.21973c2.74805,0,3.98828,1.50098,3.98828,4.49268v102.44434
			c0,29.91992-8.97363,44.86426-32.14746,44.86426c-23.93359,0-31.8999-14.46289-31.8999-44.37744V232.64844
			c0-2.9917,1.23828-4.49268,3.9873-4.49268h11.96338c1.23828,0,1.98096-0.74023,1.98096-1.9834v-8.48486
			c0-1.24512-0.74268-2.00195-1.98096-2.00195h-62.07129c-1.25537,0-1.74219,0.75684-1.74219,2.00195v8.48486
			c0,1.24316,0.48682,1.9834,1.74219,1.9834h12.20898c2.49854,0,3.73779,1.50098,3.73779,4.49268v103.94189
			c0,46.34912,18.70215,60.55811,56.58252,60.55811c36.13184,0,55.5918-16.44336,55.5918-62.5498V232.64844z M209.44971,215.68555
			c-17.20898,0-24.93408-0.23975-46.11719-0.99316c-1.23926,0-1.74756,0.75342-1.74756,1.99658l-0.99316,48.86377
			c0,1.23682,0.49316,1.97559,1.73682,1.97559h20.19873c1.24707,0,1.74805-0.73877,1.74805-1.97559v-16.70947
			c0-12.96484,4.24512-17.94385,15.44775-17.94385h13.69727v147.30371c0,2.99902-1.22949,4.5-3.9707,4.5H187.7627
			c-1.00537,0-1.48926,0.75195-1.48926,1.99316v8.4707c0,1.24316,0.48389,1.98242,1.48926,1.98242h81.00391
			c1.24951,0,1.7417-0.73926,1.7417-1.98242v-8.4707c0-1.24121-0.49219-1.99316-1.7417-1.99316h-21.68848
			c-2.47754,0-3.73535-1.50098-3.73535-4.5V230.89941h13.4624c11.21582,0,15.6875,4.979,15.6875,17.94385v16.70947
			c0,1.23682,0.50977,1.97559,1.50488,1.97559h20.19434c1.24902,0,1.99854-0.73877,1.99854-1.97559l-1.00293-48.86377
			c0-1.24316-0.49805-1.99658-1.74609-1.99658c-19.18896,0.75342-29.15723,0.99316-46.36328,0.99316H209.44971z
			 M135.17285,232.64844c0-2.9917,1.22852-4.49268,3.98828-4.49268h11.9541c1.24805,0,2.00488-0.74023,2.00488-1.9834v-8.48486
			c0-1.24512-0.75684-2.00195-2.00488-2.00195H89.05176c-1.24414,0-1.74365,0.75684-1.74365,2.00195v8.48486
			c0,1.24316,0.49951,1.9834,1.74365,1.9834h12.21191c2.49707,0,3.73584,1.50098,3.73584,4.49268v145.55469
			c0,2.99902-1.23877,4.5-3.73584,4.5H89.05176c-1.24414,0-1.74365,0.75195-1.74365,1.99316v8.4707
			c0,1.24316,0.49951,1.98242,1.74365,1.98242h62.06348c1.24805,0,2.00488-0.73926,2.00488-1.98242v-8.4707
			c0-1.24121-0.75684-1.99316-2.00488-1.99316h-11.9541c-2.75977,0-3.98828-1.50098-3.98828-4.5V232.64844z"/>
		<g>
			<path style="fill:#FFFFFF;" d="M552.40918,84.18018c0.09766,0.1167,0.20313,0.1377,0.31055,0.06201l1.1084-0.8335
				c0.20215-0.17822,0.42285-0.12598,0.63867,0.14453l9.87109,13.24805c0.19531,0.27783,0.19531,0.5-0.03027,0.67578
				l-1.0957,0.82275c-0.12695,0.09961-0.09668,0.20215-0.02441,0.30176l0.5752,0.78467
				c0.07324,0.1167,0.18164,0.15625,0.28906,0.06445l5.1875-3.95654c0.125-0.09229,0.10742-0.17627,0.01953-0.29248
				l-0.56934-0.78174c-0.08887-0.10596-0.19434-0.14014-0.28418-0.06152l-0.67969,0.52197
				c-0.24805,0.1792-0.4707,0.12891-0.67383-0.14453l-3.69141-4.96289l0.08496-1.89893l8.00293,3.56299
				c0.32031,0.07666,0.35938,0.32666,0.08594,0.5249l-0.69824,0.53711c-0.08984,0.0625-0.08984,0.16602,0,0.27979l0.58008,0.76807
				c0.08301,0.11621,0.17773,0.13916,0.2666,0.08984l5.30078-4.01465c0.08301-0.09082,0.05273-0.16846,0-0.29736l-0.60742-0.75195
				c-0.06348-0.12988-0.17578-0.15625-0.25684-0.07959l-0.46973,0.35742c-0.37207,0.2749-0.74805,0.23193-1.18359,0.03662
				l-10.78418-4.57715l0.47363-8.30273c0.01953-0.3291,0.04785-0.52148,0.31445-0.7373l0.86426-0.65625
				c0.11621-0.09277,0.11621-0.17676,0.02637-0.28955l-0.56934-0.78223c-0.10938-0.10205-0.18164-0.14014-0.30176-0.05273
				l-4.59668,3.49756c-0.07813,0.06104-0.05176,0.16602,0.02051,0.27979l0.5791,0.7666
				c0.0791,0.11621,0.17773,0.14453,0.26465,0.07813l1.01758-0.76611c0.24707-0.19238,0.45313-0.03711,0.41992,0.23975
				l-0.40039,10.08789l-4.61426-6.19482c-0.18945-0.28125-0.18945-0.49219,0.04688-0.6792l1.08887-0.83252
				c0.10742-0.07959,0.12305-0.18945,0.03516-0.32129l-0.56445-0.76904c-0.10059-0.09766-0.22754-0.10547-0.31445-0.01855
				l-5.60742,4.23389c-0.10059,0.11279-0.10059,0.19141-0.01953,0.31738L552.40918,84.18018z"/>
			<path style="fill:#FFFFFF;" d="M601.76953,61.02246c0.875-0.021,1.46484-0.77979,1.41113-1.78174
				c-0.04199-0.94727-0.71582-1.65869-1.59277-1.64551c-0.86719,0.00781-1.47461,0.79004-1.42285,1.72852
				C600.22656,60.30566,600.90918,61.0542,601.76953,61.02246z"/>
			<path style="fill:#FFFFFF;" d="M598.1543,64.00879l1.37012-0.01855c0.28711-0.01318,0.42871,0.15088,0.4502,0.50391
				l0.2832,16.58594c0,0.34326-0.14453,0.51709-0.42969,0.52734l-1.37305,0.02295c-0.14063,0.01709-0.18848,0.09521-0.18848,0.24365
				l0.02637,0.9585c0,0.13965,0.06055,0.23193,0.18945,0.22314l7.01855-0.10986c0.11426,0,0.2168-0.11328,0.2168-0.23389
				l-0.01758-0.98633c0-0.12842-0.0957-0.22656-0.23145-0.22656l-1.36719,0.04492c-0.30469,0-0.42969-0.1709-0.42969-0.51318
				l-0.30957-16.58984c0-0.34473,0.14355-0.52637,0.43457-0.52637l1.36523-0.00781c0.13379,0,0.21191-0.10498,0.21191-0.26416
				l-0.02637-0.95313c0-0.12598-0.07813-0.22412-0.22852-0.22412l-6.97754,0.1377c-0.14453,0-0.21191,0.08643-0.21191,0.21338
				l0.03223,0.96826C597.96191,63.93311,598.01074,64.00879,598.1543,64.00879z"/>
			<path style="fill:#FFFFFF;" d="M681.0957,117.62744c0.83301-0.43945,1.21582-1.33008,0.83301-2.11523
				c-0.35645-0.80225-1.30762-1.05127-2.11328-0.63232c-0.8877,0.46387-1.26465,1.37305-0.8877,2.19775
				C679.29883,117.85107,680.22266,118.08936,681.0957,117.62744z"/>
			<path style="fill:#FFFFFF;" d="M537.99316,101.13867c0.14063,0.08936,0.22168,0.10596,0.31152,0l0.875-1.08838
				c0.17188-0.20703,0.39355-0.23193,0.65137,0l12.76563,10.44434c0.26465,0.21094,0.30859,0.4375,0.12305,0.65625l-0.875,1.07422
				c-0.06152,0.1167-0.05469,0.20313,0.05176,0.30615l0.75488,0.61377c0.10449,0.06543,0.20996,0.0874,0.30371-0.02637
				l8.4541-10.57324c0.08789-0.11377,0.08691-0.22656-0.03711-0.30566l-3.95996-3.34717
				c-0.11426-0.10596-0.23242-0.07959-0.33008,0.04932l-1.43555,1.78613c-0.06836,0.0791-0.03223,0.18164,0.05664,0.26611
				l1.29785,1.06641c1.13574,0.92432,1.23828,1.68799,0.4707,2.68994l-2.57324,3.18408l-6.10156-4.98926l1.23828-1.5376
				c0.41113-0.50781,0.75-0.52441,1.32813-0.03711l0.85742,0.68994c0.11328,0.08643,0.20801,0.08643,0.28613,0.01074
				l1.13965-1.44678c0.09668-0.10205,0.04688-0.2002-0.05371-0.27588c-1.60156-1.20557-3.10938-2.4624-4.62988-3.8042
				c-0.11328-0.10205-0.21191-0.10205-0.27539-0.00928l-1.16602,1.4585c-0.07227,0.0874-0.03516,0.18701,0.06348,0.27637
				l0.87891,0.7168c0.58203,0.47363,0.64355,0.81836,0.22363,1.33545l-1.22266,1.54883l-5.61914-4.62256l2.5625-3.22607
				c0.8291-1.02344,1.53613-1.02344,2.65625-0.07764l1.30273,1.05127c0.12305,0.09229,0.2041,0.09229,0.27441,0.01318
				l1.45508-1.81982c0.0918-0.10303,0.07617-0.22656-0.02832-0.31885l-4.19434-3.26367
				c-0.09668-0.10205-0.20605-0.07568-0.2998,0.02686c-1.34766,1.70898-2.21875,2.98096-3.4375,4.46436l-4.91309,6.14307
				c-0.10254,0.11719-0.05762,0.20508,0.05273,0.30762L537.99316,101.13867z"/>
			<path style="fill:#FFFFFF;" d="M531.60352,120.78564c0.12598,0.06592,0.21875,0.06592,0.2793-0.05225l1.13574-1.99658
				c0.08496-0.13916,0.0459-0.21631-0.07715-0.30273l-1.64453-0.93555c-1.25977-0.74512-1.50586-1.44824-0.875-2.54883
				l0.77441-1.35986l14.39941,8.39014c0.27832,0.17334,0.34863,0.39648,0.20117,0.65234l-1.21191,2.14941
				c-0.06055,0.10059-0.02637,0.19238,0.10059,0.27148l0.83789,0.47217c0.11816,0.0625,0.20605,0.0625,0.27344-0.04346
				l4.54004-7.9834c0.08301-0.12598,0.0498-0.21875-0.07617-0.31055l-0.8252-0.4707c-0.125-0.06348-0.23145-0.05029-0.29102,0.04932
				l-1.21484,2.14941c-0.13477,0.2583-0.36426,0.28125-0.66504,0.12061l-14.38379-8.39893l0.75-1.3335
				c0.64355-1.11377,1.38281-1.2666,2.64746-0.5083l1.63184,0.93066c0.125,0.06445,0.22363,0.06445,0.28906-0.03516l1.125-1.99854
				c0.06055-0.11914,0.05176-0.21729-0.07227-0.30615l-4.83594-2.67578c-0.10938-0.07666-0.23145-0.06641-0.29688,0.05273
				c-1.00488,1.94043-1.53809,2.9292-2.51563,4.64648l-2.1123,3.7085c-0.97754,1.69336-1.43262,2.44922-2.68652,4.49902
				c-0.08008,0.12061-0.04102,0.22656,0.07715,0.27588L531.60352,120.78564z"/>
			<path style="fill:#FFFFFF;" d="M694.15625,197.09521c-0.13965,0-0.23828,0.06787-0.23828,0.21533v1.38135
				c0,0.28271-0.16211,0.42041-0.50586,0.42041h-16.40625c-0.34082,0-0.49219-0.1377-0.49219-0.42041v-1.38135
				c0-0.14746-0.10059-0.21533-0.24902-0.21533h-0.95215c-0.14648,0-0.20703,0.06787-0.20703,0.21533v7.07764
				c0,0.12646,0.06055,0.20557,0.20703,0.20557h0.95215c0.14844,0,0.24902-0.0791,0.24902-0.20557v-1.36963
				c0-0.31934,0.15137-0.45068,0.49219-0.45068h16.40625c0.34375,0,0.50586,0.13135,0.50586,0.45068v1.36963
				c0,0.12646,0.09863,0.20557,0.23828,0.20557h0.94531c0.13086,0,0.2334-0.0791,0.2334-0.20557v-7.07764
				c0-0.14746-0.10254-0.21533-0.2334-0.21533H694.15625z"/>
			<path style="fill:#FFFFFF;" d="M649.74512,107.26074c-0.26563,0.17383-0.50781,0.16211-0.64844-0.06641l-0.7959-1.15869
				c-0.07227-0.09961-0.18848-0.09961-0.2959-0.02393l-0.79199,0.56641c-0.11133,0.09229-0.14453,0.16895-0.07227,0.28223
				l3.19434,4.60645c0.08594,0.13916,0.18652,0.11621,0.28516,0.05566l0.79199-0.56396
				c0.12207-0.08984,0.1543-0.17334,0.07617-0.29443l-0.77051-1.13086c-0.18164-0.24219-0.12402-0.45557,0.17285-0.66309
				l11.25195-7.97021l-4.96387,9.30029c-1.08105,2.06201-2.21582,4.07227-3.33691,6.01855
				c-0.07617,0.11035-0.07617,0.2002-0.02148,0.29443l1.90332,2.74023c0.09668,0.11133,0.17969,0.11133,0.30664,0.02295
				l14.82617-10.48047c0.25879-0.21045,0.49414-0.1958,0.66504,0.07422l0.7832,1.10059
				c0.07227,0.12891,0.16699,0.12891,0.28027,0.03906l0.79199-0.55322c0.11621-0.08643,0.14258-0.17529,0.07227-0.28662
				l-3.18555-4.60205c-0.0791-0.11523-0.18652-0.11523-0.28613-0.01514l-0.79004,0.55322
				c-0.10254,0.06543-0.15332,0.18066-0.08301,0.2583l0.78516,1.15088c0.18359,0.25781,0.12207,0.47363-0.15723,0.65283
				l-11.23047,7.96045l5.00391-9.39258c1.0957-2.02588,2.22852-4.09863,3.25684-5.82471
				c0.08984-0.12598,0.10352-0.24805,0.05273-0.33936l-3.09961-4.44629c-0.07227-0.11621-0.17285-0.11621-0.29492-0.03711
				l-0.79492,0.56885c-0.0957,0.06641-0.12402,0.16846-0.06934,0.271l0.80859,1.15088
				c0.16211,0.23193,0.11426,0.44873-0.16992,0.64307L649.74512,107.26074z"/>
			<path style="fill:#FFFFFF;" d="M518.21875,143.40723c0.14844,0.03711,0.25586,0.01074,0.30371-0.11279l0.4375-1.33789
				c0.07227-0.25342,0.2998-0.34326,0.61426-0.22412l15.5166,5.39941c0.32813,0.11914,0.42578,0.30615,0.34473,0.56104
				l-0.44141,1.31934c-0.05859,0.15625,0.01953,0.23535,0.14453,0.26709l0.89844,0.33594
				c0.14453,0.02686,0.24121,0.01709,0.26465-0.13135l4.33887-12.68018l-6.41406-2.65283
				c-0.12891-0.0415-0.23047-0.02637-0.26563,0.11914l-0.69727,2.00928c-0.0332,0.10303,0.01953,0.20557,0.16211,0.22656
				l2.95117,1.19043c1.34961,0.5542,1.87891,0.7959,0.85742,3.73535l-0.83789,2.51514l-15.71484-5.45459
				c-0.32422-0.11035-0.42871-0.30811-0.33203-0.6001l0.80078-2.37158c0.05371-0.1416,0-0.24512-0.13184-0.29443l-0.90625-0.30322
				c-0.11133-0.05469-0.24219,0-0.28613,0.13721l-2.63184,7.76074c-0.06348,0.13379,0,0.21533,0.13965,0.26807L518.21875,143.40723z
				"/>
			<path style="fill:#FFFFFF;" d="M573.71289,69.75391l1.31543-0.39746c0.2627-0.0918,0.45703,0.02441,0.54883,0.34717
				l4.83008,15.8833c0.07227,0.3291,0,0.52148-0.28125,0.63086l-1.32129,0.39258c-0.11914,0.02783-0.16211,0.1416-0.10547,0.28271
				l0.26465,0.89453c0.03516,0.15234,0.125,0.2207,0.2666,0.18066l5.30078-1.64111c0.14941-0.04932,0.17383-0.15283,0.13379-0.27637
				l-0.2666-0.92432c-0.05664-0.15576-0.12988-0.20508-0.26074-0.16357l-1.29297,0.37988
				c-0.29785,0.11816-0.4707-0.01563-0.5791-0.3457l-4.01758-13.2832l7.22168,7.64111
				c1.58496,1.67578,3.12891,3.39063,4.61621,5.06787c0.08105,0.08447,0.19141,0.12695,0.25684,0.08447l3.18457-0.9541
				c0.1377-0.0415,0.15625-0.14453,0.11816-0.28125L588.35742,65.771c-0.10059-0.33447-0.01074-0.54248,0.27441-0.62598
				l1.29688-0.39795c0.14941-0.03955,0.15723-0.14551,0.1123-0.27979l-0.26758-0.91357
				c-0.04785-0.14795-0.11523-0.21094-0.25977-0.1709l-5.32813,1.64893c-0.10059,0.02051-0.12012,0.12109-0.08496,0.26563
				l0.27148,0.9082c0.0459,0.14307,0.12891,0.22266,0.2334,0.19775l1.32813-0.42578c0.2832-0.0874,0.46191,0.02295,0.56934,0.35791
				l4.01855,13.26123l-7.31836-7.7251c-1.54395-1.65625-3.13184-3.39453-4.44727-4.92334
				c-0.09668-0.11279-0.20508-0.17871-0.30371-0.13916l-5.15039,1.58838c-0.12891,0.03955-0.16016,0.14014-0.12891,0.2666
				l0.28613,0.91895C573.49707,69.72852,573.59473,69.80664,573.71289,69.75391z"/>
			<path style="fill:#FFFFFF;" d="M609.20313,82.83252l6.21973,1.93262c0.12305,0.03711,0.21191-0.02637,0.23242-0.16211
				l0.30762-0.92285c0.02832-0.12695,0.01758-0.22852-0.13281-0.27148l-0.80762-0.25488
				c-0.29102-0.08936-0.38477-0.28516-0.28027-0.61133l1.79883-5.95313l1.57324-1.04004l1.86133,8.63086
				c0.11133,0.29297-0.07422,0.48096-0.38965,0.396l-0.82227-0.26611c-0.11133-0.03467-0.19434,0.01855-0.2207,0.16309
				l-0.29102,0.93506c-0.03711,0.12842-0.01367,0.22656,0.0957,0.27148l6.31641,1.94141
				c0.10547,0.03857,0.1875-0.01074,0.23828-0.16602l0.25195-0.93311c0.07227-0.11572,0.03223-0.23389-0.08301-0.24414
				l-0.56445-0.17676c-0.43359-0.14014-0.62207-0.46631-0.72949-0.94775l-2.67969-11.49854l6.91797-4.50586
				c0.28711-0.17383,0.47949-0.26367,0.78711-0.1665l1.01563,0.33691c0.13379,0.03711,0.23828-0.03613,0.26465-0.17041
				l0.29102-0.93311c0.02637-0.12891,0-0.24414-0.12012-0.26367l-5.49121-1.69629c-0.12012-0.05029-0.2041,0.03613-0.24121,0.17236
				l-0.28906,0.90186c-0.02734,0.14844,0,0.25586,0.11621,0.28223l1.21484,0.35938c0.29102,0.10205,0.29688,0.37305,0.0498,0.51318
				l-8.31934,5.58105l2.24609-7.40137c0.12012-0.3291,0.27539-0.45898,0.58203-0.37256l1.28906,0.40137
				c0.14453,0.06299,0.24512-0.01318,0.27734-0.14258l0.28223-0.92432c0.04395-0.13965-0.0127-0.23486-0.15234-0.27637
				l-6.68652-2.07861c-0.13965-0.03418-0.20801,0.02637-0.26074,0.16064l-0.27051,0.93018
				c-0.04395,0.13184-0.01953,0.23926,0.11328,0.26563l1.30371,0.41357c0.26953,0.07666,0.36621,0.27881,0.26953,0.61133
				l-4.80273,15.87549c-0.08301,0.33252-0.27539,0.44531-0.54199,0.36865l-1.30371-0.40576
				c-0.14844-0.03955-0.24121,0.00781-0.27344,0.15625l-0.28906,0.91895C609.0459,82.71191,609.07617,82.81152,609.20313,82.83252z"
				/>
			<path style="fill:#FFFFFF;" d="M659.4541,85.6665c0.63867-0.68262,0.67773-1.66797,0.07617-2.229
				c-0.61621-0.62158-1.56641-0.54199-2.24023,0.14063c-0.67773,0.71875-0.70898,1.70557-0.08984,2.31494
				C657.79395,86.45654,658.76074,86.36475,659.4541,85.6665z"/>
			<path style="fill:#FFFFFF;" d="M690.63574,161.59521l0.19531,1.37256c0.03906,0.29248-0.09863,0.44531-0.41992,0.51416
				l-16.22656,2.59473c-0.33496,0.03955-0.5166-0.06885-0.57129-0.34326l-0.2207-1.37256
				c-0.01563-0.1543-0.09863-0.20703-0.23438-0.16748l-0.9541,0.13867c-0.14258,0.02881-0.2168,0.09277-0.20117,0.23535
				l1.11621,6.99072c0.02344,0.13379,0.10449,0.22656,0.24707,0.18848l0.93652-0.1543
				c0.15234-0.01123,0.22949-0.09766,0.19922-0.24316l-0.19922-1.36084c-0.06836-0.30615,0.07129-0.48535,0.41309-0.51904
				l7.4707-1.20361l0.23633,1.52197c-2.60742,2.02539-5.72559,3.9292-8.59961,5.40234
				c-0.08594,0.03955-0.125,0.14453-0.11328,0.25586l0.64746,4.12207c0.03711,0.14209,0.13086,0.16846,0.25391,0.15527
				l0.94238-0.15527c0.15137,0,0.20996-0.09229,0.19727-0.23193l-0.11816-0.68701c-0.05273-0.31152,0.07227-0.50098,0.3584-0.64111
				c2.59277-1.47363,5.30371-3.40527,7.25488-5.01953c0.71973,1.73047,2.60938,3.46094,5.80176,2.92822
				c4.7627-0.76367,4.70801-3.45264,4.0957-7.35645l-1.1377-7.18018c-0.01758-0.15576-0.10352-0.17871-0.25586-0.1709
				l-0.93848,0.1543C690.68262,161.38818,690.58984,161.45605,690.63574,161.59521z M691.34277,167.25391l0.17773,1.14209
				c0.36426,2.31543,0.05371,3.49268-3.04395,3.98828c-3.42969,0.55322-4.2832-1.44531-4.54199-3.14697l-0.20117-1.21533
				l7.0293-1.12451C691.11719,166.83154,691.28418,166.9541,691.34277,167.25391z"/>
			<path style="fill:#FFFFFF;" d="M681.13281,129.13672l0.69141,1.81201c0.05176,0.1416,0.15039,0.16553,0.28223,0.10205
				l0.90918-0.34375c0.11035-0.05127,0.1543-0.12988,0.12695-0.25146l-2.57617-6.77441
				c-0.03516-0.14014-0.14648-0.15332-0.27148-0.10303l-0.89551,0.3457c-0.13574,0.03955-0.18945,0.12842-0.13574,0.2583
				l0.28223,0.75293c0.09668,0.22607-0.02344,0.46045-0.28223,0.65283l-12.03418,9.21729
				c-0.90137,0.67578-2.03516,1.52441-3.07813,2.16455c-0.14063,0.04785-0.17285,0.10742-0.12891,0.21338l1.11719,2.91846
				c0.02246,0.12891,0.12891,0.16846,0.2666,0.14551c2.36816-0.42236,4.125-0.52637,6.23535-0.71191l12.52344-1.02979
				c0.34082-0.04004,0.53516,0.021,0.63379,0.30615l0.30664,0.78125c0.0459,0.13916,0.15918,0.16406,0.28613,0.11475l0.87988-0.3457
				c0.15137-0.06348,0.19922-0.12646,0.15137-0.27197l-1.87305-4.93018c-0.04395-0.1377-0.14258-0.14795-0.28223-0.11377
				l-0.87988,0.3501c-0.1377,0.06348-0.21777,0.14307-0.1416,0.27979l0.5293,1.37158c0.10059,0.29346-0.03711,0.4375-0.3877,0.48828
				l-14.97754,1.5957l12.12695-9.13721C680.82227,128.77539,681.02734,128.82568,681.13281,129.13672z"/>
			<path style="fill:#FFFFFF;" d="M686.33496,143.71484l0.34082,1.35742c0.06836,0.26367-0.08008,0.44727-0.4043,0.53564
				l-15.92188,4.02441c-0.33789,0.07031-0.52734-0.01709-0.58496-0.30078l-0.33887-1.354
				c-0.03711-0.13916-0.14453-0.16943-0.26855-0.13916l-0.93652,0.2373c-0.12695,0.04395-0.19922,0.104-0.16895,0.24414
				l3.27051,13.21533c0.02832,0.1377,0.10059,0.17383,0.26563,0.1377l5.04492-1.17725
				c0.12402-0.05322,0.1875-0.14063,0.15039-0.2832l-0.54492-2.26514c-0.04395-0.10303-0.13281-0.14258-0.28223-0.10303
				l-1.59863,0.39258c-1.42188,0.36035-2.07422,0-2.3916-1.21924l-0.98047-3.99609l7.59863-1.93408l0.48145,1.93408
				c0.15039,0.62451-0.03809,0.90576-0.77246,1.08838l-1.06348,0.2627c-0.14648,0.04248-0.19629,0.11914-0.18555,0.23193
				l0.45898,1.79688c0.03125,0.13916,0.12891,0.1792,0.2627,0.13916c1.90723-0.5791,3.80664-1.04785,5.78418-1.45703
				c0.12695-0.02637,0.18848-0.10205,0.16016-0.22021l-0.44629-1.83105c-0.01367-0.0918-0.12109-0.14453-0.24512-0.0918
				l-1.10059,0.25488c-0.74414,0.19238-1.03223,0.04492-1.20117-0.59424l-0.46387-1.93945l7.05176-1.7666l0.9668,4.01904
				c0.32813,1.29541-0.10059,1.85645-1.52734,2.21729l-1.60742,0.40137c-0.13867,0.02637-0.21094,0.10986-0.19043,0.22803
				l0.58594,2.25c0.03027,0.13965,0.12402,0.20313,0.25195,0.16602l5.08594-1.40674
				c0.14941-0.03369,0.20117-0.12354,0.18652-0.26563c-0.55176-2.13184-0.99805-3.59033-1.45703-5.47363l-1.91895-7.6499
				c-0.01563-0.1543-0.12207-0.18066-0.24121-0.1543l-0.92285,0.2417C686.37402,143.4917,686.30176,143.58643,686.33496,143.71484z"
				/>
			<path style="fill:#FFFFFF;" d="M655.51563,81.81055c0.63086-0.68799,0.69141-1.6416,0.0791-2.25195
				c-0.63184-0.61475-1.60352-0.5376-2.25293,0.15479c-0.6875,0.69824-0.74023,1.68506-0.11816,2.27783
				C653.86816,82.63428,654.81348,82.52686,655.51563,81.81055z"/>
			<path style="fill:#FFFFFF;" d="M649.38184,99.1167l7.98242-8.37451c0.23633-0.23975,0.45313-0.26563,0.65234-0.06006
				l0.91699,0.86865c0.08301,0.10352,0.17871,0.06543,0.2627-0.02344l0.67969-0.70557
				c0.0918-0.10596,0.09863-0.19238,0.03711-0.27979l-3.91992-3.81641c-0.06836-0.0874-0.16406-0.05273-0.26953,0.03369
				l-0.65625,0.71191c-0.10449,0.09961-0.12402,0.18848-0.03906,0.27295l0.92285,0.90137
				c0.19531,0.20508,0.19531,0.43701-0.04785,0.6792l-8.0293,8.39746c-2.33203,2.46875-4.22949,2.979-6.12109,1.14404
				c-1.93652-1.89893-1.46387-3.71924,0.89844-6.16699l8.06641-8.44238c0.2373-0.2583,0.44824-0.28125,0.6748-0.06592
				l0.95117,0.9624c0.11523,0.08643,0.23242,0.08643,0.33008,0l0.66797-0.7041c0.09375-0.12061,0.08691-0.21875,0-0.32178
				l-5.04102-4.91455c-0.09863-0.11279-0.19434-0.09131-0.2959,0.02686l-0.66504,0.68701c-0.10254,0.1084-0.11133,0.19482,0,0.30566
				l0.96777,0.96436c0.20508,0.20166,0.20508,0.41064-0.05273,0.66406l-8.14063,8.51025
				c-3.64063,3.83008-3.22266,6.46826-0.14063,9.47217C642.90332,102.69971,645.76465,102.89063,649.38184,99.1167z"/>
			<path style="fill:#FFFFFF;" d="M683.42969,187.36475c-1.07031,2.81494-1.95605,3.51904-3.85742,3.60645
				c-1.66406,0.10498-3.4082-0.39258-3.5332-2.75c-0.13281-2.43018,1.54297-3.40381,4.28223-3.23535
				c0.13281,0.02393,0.21582-0.04395,0.21582-0.18408l-0.15039-2.80322c0-0.0791-0.0918-0.13672-0.24121-0.1499
				c-4.31152-0.229-5.84277,2.15723-5.64355,6.26904c0.2666,4.84912,2.60742,6.5459,6.26953,6.33789
				c3.11719-0.17725,4.79102-1.93604,6.27051-6.16406c1.00391-2.65283,1.76953-3.04004,3.56738-3.14258
				c1.96094-0.08447,2.97754,0.74023,3.07031,2.49707c0.13086,2.20215-1.58887,2.86816-3.98633,2.77734
				c-0.14941-0.03809-0.21875,0.03955-0.21875,0.19385l0.13379,2.73438c0.0127,0.08203,0.11133,0.16846,0.24512,0.18701
				c4.2793,0.23438,5.54492-1.99951,5.35059-5.94189c-0.18848-3.63818-2.06055-6.07178-5.6377-5.89014
				C686.1748,181.89648,684.86328,183.29541,683.42969,187.36475z"/>
			<path style="fill:#FFFFFF;" d="M675.16602,116.04248c0.12109,0.25488,0.01367,0.4707-0.27734,0.62451l-14.75684,7.25684
				c-0.31445,0.16016-0.5293,0.10205-0.63867-0.15283l-0.6123-1.25684c-0.05859-0.11377-0.15137-0.1377-0.28906-0.07568
				l-0.86133,0.43408c-0.12988,0.05518-0.16211,0.14697-0.09277,0.26807l3.06543,6.3623
				c0.04199,0.12891,0.1748,0.15723,0.2998,0.12109l0.84863-0.44043c0.1377-0.04688,0.16211-0.17871,0.11133-0.30518
				l-0.59082-1.23389c-0.13965-0.27832-0.05859-0.46973,0.25195-0.62451l14.75879-7.27979
				c0.28906-0.15479,0.50488-0.08691,0.65039,0.20215l0.59863,1.2041c0.03711,0.14111,0.16895,0.17432,0.28223,0.10547
				l0.86914-0.42822c0.12402-0.04541,0.15723-0.17725,0.09375-0.29297l-3.0498-6.34766
				c-0.07617-0.14258-0.17285-0.15088-0.30566-0.09277l-0.85352,0.41016c-0.13574,0.06982-0.17969,0.15625-0.10547,0.29297
				L675.16602,116.04248z"/>
			<path style="fill:#FFFFFF;" d="M512.52734,162.91455l0.94336,0.21729c0.12012,0.01025,0.23145-0.0249,0.23633-0.16406
				l0.32617-1.35645c0.05273-0.27441,0.25977-0.37695,0.58203-0.31055l11.43066,2.68115
				c5.09375,1.17041,7.13184-0.52393,8.07715-4.72998c0.90332-4.01758-0.38965-6.59912-5.45117-7.7793l-11.18652-2.62354
				c-0.35449-0.08398-0.4873-0.24707-0.4248-0.5293l0.28223-1.23828c0.04199-0.11816-0.03516-0.18701-0.16992-0.21533
				l-0.92383-0.22217c-0.15332-0.03613-0.23438,0-0.26465,0.11621l-1.21875,5.35303
				c-0.03027,0.10498,0.02832,0.15771,0.17969,0.20264l0.92969,0.22607c0.13965,0.01904,0.2207,0,0.24902-0.12646l0.29102-1.24854
				c0.06348-0.29639,0.27148-0.40771,0.59961-0.32275l11.26465,2.65088c3.27148,0.74072,4.69336,2.12402,4.10938,4.70801
				c-0.5957,2.66016-2.40723,3.17676-5.69043,2.40771l-11.30176-2.63965c-0.35449-0.0874-0.47266-0.25293-0.39258-0.55908
				l0.29395-1.33008c0.02637-0.12891-0.03516-0.24707-0.1748-0.28467l-0.91992-0.20459
				c-0.15234-0.03369-0.24023,0.02637-0.28418,0.16797l-1.55078,6.90674
				C512.32813,162.78564,512.40137,162.86523,512.52734,162.91455z"/>
			<path style="fill:#FFFFFF;" d="M685.01367,244.60791c-3.23828-0.93994-4.92285-0.04248-7.60645,3.32324
				c-1.9209,2.31982-2.99121,2.67969-4.79883,2.16797c-1.6123-0.46729-3.11523-1.53467-2.47559-3.79932
				c0.6709-2.31982,2.57227-2.67969,5.09473-1.64258c0.1377,0.09521,0.2207,0.04248,0.25879-0.0918l0.77832-2.69141
				c0.02148-0.08496-0.05273-0.17139-0.16797-0.23828c-4.01465-1.63721-6.2373,0.10059-7.35352,4.08887
				c-1.32813,4.66211,0.3418,7.00635,3.8877,8.04688c3.00195,0.84521,5.13086-0.2417,7.90039-3.76416
				c1.80078-2.18896,2.63086-2.28613,4.37891-1.77783c1.89063,0.53613,2.57813,1.66162,2.09668,3.36914
				c-0.60352,2.10938-2.41992,2.18896-4.6748,1.2876c-0.1084-0.06201-0.19531-0.03564-0.25879,0.09521l-0.74414,2.64941
				c-0.02344,0.08447,0.0293,0.20117,0.16602,0.23975c3.99121,1.65088,5.8916-0.03857,6.98145-3.85596
				C689.4502,248.52197,688.47656,245.60303,685.01367,244.60791z"/>
			<path style="fill:#FFFFFF;" d="M687.53223,265.2002c-0.93652-0.30176-1.85547,0.05127-2.14844,0.88525
				c-0.30957,0.82031,0.14844,1.65479,1.08691,1.9707c0.89063,0.31006,1.80078-0.03906,2.10938-0.85547
				C688.88184,266.38037,688.43066,265.50879,687.53223,265.2002z"/>
			<path style="fill:#FFFFFF;" d="M684.21289,261.06738c-0.14063-0.04932-0.22559-0.02148-0.27832,0.09863l-0.46973,1.2998
				c-0.10938,0.27734-0.30273,0.36523-0.62598,0.22412l-15.42383-5.66553c-0.32129-0.11279-0.43262-0.31055-0.34375-0.57715
				l0.49023-1.2876c0.05957-0.15527-0.01758-0.23975-0.14648-0.28906l-0.91016-0.3335
				c-0.12695-0.03857-0.22461-0.00879-0.27051,0.11621l-2.40234,6.65723c-0.03809,0.12891,0,0.24707,0.14648,0.28223l0.88086,0.3335
				c0.14746,0.05127,0.25684,0,0.30273-0.12695l0.44824-1.29297c0.11328-0.29639,0.32422-0.35791,0.64941-0.24512l15.4043,5.67432
				c0.31055,0.11475,0.44238,0.30176,0.34766,0.6123l-0.47852,1.27002c-0.03809,0.13428,0,0.25244,0.13086,0.28906l0.90625,0.33545
				c0.12598,0.05273,0.2334,0,0.28613-0.14453l2.39355-6.64502c0.05469-0.13232,0-0.21338-0.14453-0.26611L684.21289,261.06738z"/>
			<path style="fill:#FFFFFF;" d="M602.33398,92.90723c-34.73145,0-62.91016,47.45264-62.91016,106.00488
				c0,58.57422,28.17871,106.021,62.91016,106.021c34.75684,0,62.93457-47.44678,62.93457-106.021
				C665.26855,140.35986,637.09082,92.90723,602.33398,92.90723z M602.33398,301.14209
				c-31.16699,0-59.14941-43.80908-59.14941-102.22998c0-58.39697,27.98242-102.20361,59.14941-102.20361
				c31.17773,0,59.15918,43.80664,59.15918,102.20361C661.49316,257.33301,633.51172,301.14209,602.33398,301.14209z"/>
			<path style="fill:#FFFFFF;" d="M680.09375,91.74072c-20.41211-29.02734-47.96484-45.47998-77.75977-45.47998
				c-29.77637,0-57.3457,16.45264-77.73828,45.47998c-20.29004,28.81641-31.31836,66.92627-31.31836,107.17139
				c0,40.29297,11.02832,78.36572,31.31836,107.17432c20.39258,29.04688,47.96191,45.5083,77.73828,45.5083
				c29.79492,0,57.34766-16.46143,77.75977-45.5083c20.27344-28.80859,31.29297-66.88135,31.29297-107.17432
				C711.38672,158.66699,700.36719,120.55713,680.09375,91.74072z M677.0332,303.88867
				c-19.86523,28.2832-46.40137,43.9043-74.69922,43.9043c-28.30566,0-54.8125-15.62109-74.7168-43.9043
				c-19.73145-28.07471-30.57813-65.35205-30.57813-104.97656c0-39.59229,10.84668-76.87158,30.57813-104.96729
				c19.9043-28.26807,46.41113-43.8916,74.7168-43.8916c28.29785,0,54.83398,15.62354,74.69922,43.8916
				c19.74609,28.0957,30.60352,65.375,30.60352,104.96729C707.63672,238.53662,696.7793,275.81396,677.0332,303.88867z"/>
			<path style="fill:#FFFFFF;" d="M623.93945,321.85986c1.72266-0.49072,2.90625-2.01123,2.90625-4.21582
				c0-3.16992-1.64355-4.75732-4.82227-4.75732c-3.34766,0-5.45605,1.54297-5.0498,5.55273
				c0.03125,0.10205,0.10547,0.19385,0.17285,0.19385h2.66113c0.09375,0,0.16406-0.0918,0.16406-0.19385
				c-0.23438-2.49951,0.41113-4.15771,1.83301-4.15771c1.28906,0,1.83984,1.1499,1.83984,3.41699
				c0,2.58594-1.29297,3.44287-2.58789,3.44287h-0.68066c-0.10254,0-0.16602,0.07617-0.16602,0.20313v1.24365
				c0,0.13721,0.06348,0.21338,0.16602,0.21338h0.8877c1.41113,0,2.84277,0.4375,2.84277,3.85742
				c0,2.55957-0.94141,3.85449-2.17676,3.85449c-1.60645,0-2.19238-1.54004-1.95801-3.77832
				c0-0.12695-0.07031-0.19043-0.16406-0.19043h-2.66113c-0.06738,0-0.1416,0.06348-0.17285,0.19043
				c-0.40625,3.95117,1.75488,5.17676,4.89844,5.17676c3.0459,0,5.49414-1.68262,5.49414-5.59863
				C627.36621,323.40479,625.7334,322.06055,623.93945,321.85986z"/>
			<path style="fill:#FFFFFF;" d="M698.76172,199.76318c-1.00879,0.02832-1.75,0.69775-1.75,1.58789
				c-0.01953,0.88428,0.71094,1.47803,1.70215,1.45166c0.93164,0,1.67773-0.64307,1.67773-1.5249
				C700.3916,200.39746,699.68066,199.75439,698.76172,199.76318z"/>
			<path style="fill:#FFFFFF;" d="M693.4541,225.79297l-0.94727-0.15625c-0.1582-0.02637-0.23828,0.00879-0.25391,0.15625
				l-0.2207,1.38037c-0.04395,0.28223-0.22754,0.38623-0.55176,0.33691l-16.23242-2.59229
				c-0.3418-0.06104-0.47949-0.21533-0.4209-0.5l0.20605-1.37793c0.03027-0.1416-0.04785-0.21875-0.19043-0.24512l-0.94141-0.13916
				c-0.1377-0.03955-0.2334,0.02637-0.25098,0.16553l-2.10254,13.45557c-0.03223,0.11279,0.04004,0.19922,0.17773,0.21533
				l5.09473,0.89795c0.14648,0.021,0.24023-0.03906,0.2627-0.18359l0.35059-2.3125c0.02734-0.10254-0.04688-0.18164-0.2041-0.1958
				l-1.62793-0.25781c-1.43945-0.23975-1.91602-0.83252-1.72363-2.09473l0.6543-4.07178l7.72949,1.25391l-0.28711,1.9624
				c-0.11133,0.63184-0.40234,0.81689-1.15234,0.69775l-1.07715-0.16553c-0.15039-0.02148-0.2334,0.01318-0.25293,0.12598
				l-0.28223,1.83691c-0.02637,0.13574,0.05371,0.19971,0.18945,0.22754c1.98633,0.22754,3.92773,0.55225,5.88379,0.93164
				c0.14551,0.02637,0.24902-0.00879,0.24902-0.12695l0.28027-1.84082c0.00586-0.10938-0.05469-0.19336-0.17285-0.21338
				l-1.12207-0.18262c-0.74219-0.11572-0.96289-0.38477-0.84961-1.01318l0.29785-1.97412l7.16699,1.14111l-0.64746,4.08301
				c-0.20996,1.3457-0.84082,1.66504-2.28809,1.43555l-1.60156-0.26953c-0.14258-0.0127-0.24805,0.04053-0.26074,0.14453
				l-0.38281,2.30371c-0.00879,0.125,0.06152,0.229,0.20313,0.25732l5.24609,0.72705
				c0.14258,0.01025,0.22168-0.05859,0.23633-0.18018c0.32813-2.17139,0.47266-3.69873,0.7793-5.61621l1.2168-7.81348
				C693.64844,225.88037,693.58691,225.80078,693.4541,225.79297z"/>
			<path style="fill:#FFFFFF;" d="M695.19922,207.84668l-5.50586-0.58643c-0.12695-0.01318-0.21875,0.02295-0.21875,0.17334
				l-0.19727,2.2915c-0.02637,0.13965,0.07422,0.22119,0.19727,0.22607l1.88965,0.16016
				c1.4375,0.12793,1.95801,0.66406,1.84668,1.93164l-0.13086,1.56445l-16.53711-1.47559
				c-0.34863-0.02637-0.50391-0.18848-0.47266-0.49707l0.21582-2.47314c0-0.10498-0.07422-0.18262-0.21582-0.18262l-0.95605-0.08301
				c-0.12891,0-0.22559,0.03369-0.24121,0.15283l-0.79395,9.18896c0,0.15527,0.0791,0.21875,0.22363,0.24512l0.9248,0.06104
				c0.14648,0.02832,0.22559-0.01123,0.25195-0.16846l0.22559-2.46582c0.00586-0.26807,0.18555-0.41113,0.5332-0.39014
				l16.55664,1.48828l-0.1416,1.5249c-0.09863,1.27783-0.70605,1.7124-2.16797,1.58301l-1.87988-0.13574
				c-0.12891-0.04346-0.2207,0.02637-0.24219,0.12842l-0.19238,2.30225c-0.01758,0.14258,0.07422,0.2334,0.19238,0.24512
				l5.5127,0.37109c0.14063,0.01318,0.22754-0.02637,0.23926-0.16846c0.11719-2.19922,0.18359-3.31055,0.34766-5.28467
				l0.37207-4.26416c0.15918-1.97217,0.2666-2.84375,0.56348-5.23633C695.39844,207.93115,695.33496,207.87109,695.19922,207.84668z
				"/>
			<path style="fill:#FFFFFF;" d="M538.16895,254.53711l-0.89258,0.3457c-0.15527,0.03711-0.19922,0.15527-0.15527,0.28418
				l0.47168,1.28027c0.10059,0.30518,0,0.48877-0.31641,0.61768l-15.42871,5.6709c-0.32813,0.12158-0.52344,0.03369-0.62793-0.27002
				l-0.46191-1.26807c-0.0625-0.13037-0.15527-0.17969-0.27734-0.13037l-0.92578,0.31934
				c-0.12402,0.05273-0.16797,0.1709-0.12402,0.29785l2.37988,6.64111c0.07227,0.14111,0.15137,0.16943,0.30371,0.1167
				l0.88379-0.33545c0.12305-0.03662,0.19727-0.12842,0.14941-0.26416l-0.46191-1.29492
				c-0.11523-0.28564,0.00391-0.4624,0.3125-0.57666l15.44336-5.68359c0.30469-0.11621,0.52344-0.05127,0.61133,0.21875
				l0.46777,1.31934c0.05273,0.14307,0.15918,0.15186,0.28027,0.10059l0.89648-0.3335
				c0.14063-0.03516,0.19043-0.125,0.15332-0.24316l-2.40234-6.66943C538.38672,254.55664,538.29785,254.49854,538.16895,254.53711z
				"/>
			<path style="fill:#FFFFFF;" d="M510.16699,182.09814l0.93848,0.1377c0.13867,0.01172,0.23242-0.03174,0.24707-0.1709
				l0.16699-1.38281c0.03418-0.29297,0.22949-0.41016,0.54004-0.35938l16.30176,2.00732
				c0.34082,0.05322,0.48047,0.2085,0.44531,0.49072l-0.16992,1.38281c-0.01172,0.14014,0.06543,0.2002,0.20508,0.22412
				l0.94922,0.12158c0.13867,0.02637,0.23047-0.02979,0.24609-0.16943l0.91211-7.42236
				c0.42676-3.51904-0.11816-6.88818-4.48926-7.44385c-3.35449-0.40576-4.9668,1.16943-5.66211,3.61426
				c-0.14258-2.33203-1.66309-3.82275-4.21387-4.13037c-4.12793-0.5249-5.33984,2.2251-5.77734,5.7417l-0.86426,7.14014
				C509.91992,182.02539,510.0166,182.09131,510.16699,182.09814z M521.36035,176.54639
				c0.33398-2.5708,1.41895-3.84082,4.63281-3.44482c2.45703,0.30762,3.62793,1.56445,3.34961,3.94043l-0.17969,1.47998
				c-0.03613,0.30615-0.21582,0.42139-0.54688,0.37939l-7.42871-0.92188L521.36035,176.54639z M512.36816,175.1001
				c0.22754-1.91943,1.10254-2.86572,3.75586-2.53418c3.13965,0.39258,3.87695,2.03662,3.64258,3.9248l-0.12402,1.29834
				l-6.99902-0.87402c-0.33398-0.03711-0.47461-0.18896-0.4375-0.46582L512.36816,175.1001z"/>
			<path style="fill:#FFFFFF;" d="M522.84766,255.87061c3.26563-0.9082,4.21973-2.58936,4.72949-6.88477
				c0.41406-2.97217,1.125-3.854,2.95117-4.37793c1.6123-0.47461,3.41309-0.38281,4.04785,1.87842
				c0.66309,2.33545-0.75,3.6499-3.44824,4.11182c-0.15332,0.0127-0.20508,0.09033-0.16211,0.23291l0.76367,2.69873
				c0.01367,0.0918,0.13574,0.10254,0.2627,0.10254c4.25977-0.75684,5.23145-3.43457,4.11133-7.39453
				c-1.32813-4.67969-3.96875-5.77881-7.52344-4.74658c-2.99316,0.87842-4.23633,2.9458-4.74121,7.40332
				c-0.38574,2.84131-1.0332,3.37793-2.76074,3.88916c-1.89551,0.54004-3.08105-0.03711-3.56641-1.72852
				c-0.6084-2.12207,0.9209-3.15918,3.27539-3.60547c0.15234-0.02637,0.22754-0.10596,0.18555-0.2168l-0.74805-2.66748
				c-0.0332-0.0791-0.15137-0.12842-0.29102-0.12842c-4.22461,0.76025-4.96191,3.21533-3.87305,7.0166
				C517.05859,254.9624,519.39551,256.89551,522.84766,255.87061z"/>
			<path style="fill:#FFFFFF;" d="M517.13086,264.42236c-0.88184,0.3457-1.3584,1.18896-1.07031,2.02686
				c0.28516,0.82715,1.18652,1.17969,2.06641,0.83936c0.90527-0.36523,1.38477-1.23828,1.09277-2.08838
				C518.91602,264.3833,518.04785,264.06592,517.13086,264.42236z"/>
			<path style="fill:#FFFFFF;" d="M519.43066,240.19287l-0.39844-2.26855c-0.02246-0.13574-0.11621-0.1748-0.25195-0.15332
				l-1.85449,0.3335c-1.44727,0.25537-2.07617-0.1167-2.31055-1.3833l-0.26074-1.55029l16.37793-2.91943
				c0.31445-0.06348,0.5166,0.05566,0.56445,0.38379l0.43262,2.42432c0.01367,0.09912,0.10742,0.13574,0.24316,0.12549
				l0.9541-0.16748c0.1377-0.01074,0.20508-0.10596,0.1875-0.21729l-1.58594-9.08398
				c-0.03516-0.14746-0.10938-0.18164-0.25391-0.14746l-0.94238,0.15527c-0.14258,0.02637-0.19922,0.0918-0.18164,0.22949
				l0.41797,2.43066c0.03906,0.28809-0.1123,0.46387-0.41797,0.5166l-16.39551,2.91846l-0.23828-1.52588
				c-0.23145-1.23975,0.23828-1.85107,1.68457-2.09814l1.85742-0.33252c0.13574-0.03711,0.2041-0.09961,0.18848-0.21875
				l-0.3877-2.26563c-0.02344-0.14404-0.1377-0.21533-0.27539-0.16211l-5.38867,1.05811
				c-0.15918,0.0249-0.21191,0.10303-0.20508,0.23486c0.46289,2.13672,0.69727,3.25781,1.0166,5.18066l0.74609,4.24121
				c0.34375,1.93164,0.46875,2.78711,0.7832,5.20703c0.04395,0.13037,0.13379,0.18018,0.27637,0.13037l5.42285-0.85156
				C519.38672,240.40625,519.46289,240.33203,519.43066,240.19287z"/>
			<path style="fill:#FFFFFF;" d="M587.08691,330.39697h-2.81836c-0.28223,0-0.40918-0.14111-0.40918-0.46191v-10.97168
				c0-2.0498,0.06152-3.56836,0.28125-5.66602c0.02734-0.13037-0.04004-0.19385-0.16699-0.19385h-1.87207
				c-0.12988,0-0.22852,0.08789-0.30273,0.19385c-0.81836,0.86621-2.48242,1.76758-4.31641,2.35303
				c-0.12207,0.03906-0.17871,0.1167-0.17871,0.20313v0.94531c0,0.15723,0.05664,0.2207,0.17871,0.19922l3.30859-0.72998v13.66699
				c0,0.3208-0.12988,0.46191-0.4209,0.46191h-2.83496c-0.14063,0-0.1748,0.09033-0.1748,0.20459v0.88721
				c0,0.12354,0.03418,0.21191,0.1748,0.21191h9.55176c0.12695,0,0.17969-0.08838,0.17969-0.21191v-0.88721
				C587.2666,330.4873,587.21387,330.39697,587.08691,330.39697z"/>
			<path style="fill:#FFFFFF;" d="M613.56934,319.08154h-5.55469c-1.42383,0-2.87402-0.04053-4.70508-0.08838
				c-0.12891,0-0.1709,0.04785-0.1709,0.18701l-0.07617,5.48242c0,0.125,0.04492,0.20264,0.14648,0.20264h1.91016
				c0.0957,0,0.15039-0.07764,0.15039-0.20264v-1.53662c0-1.56104,0.63672-1.69141,1.50488-1.69141h4.95117
				c-2.64941,5.64648-4.65137,10.41797-6.60645,15.93896c-0.0752,0.17285,0.08496,0.30322,0.15039,0.30322h3.02148
				c0.07422,0,0.12402-0.05078,0.14453-0.17432c1.10449-5.19678,2.79102-10.48486,5.30762-17.18262v-1.00732
				C613.74316,319.16064,613.69238,319.08154,613.56934,319.08154z"/>
			<path style="fill:#FFFFFF;" d="M510.62012,203.17139l0.03516-1.39648c0-0.26807,0.15137-0.42383,0.49707-0.40723l16.4248,0.27881
				c0.31738,0,0.49902,0.17188,0.48145,0.4375l-0.01465,1.39355c0,0.1416,0.08301,0.20508,0.21582,0.20508l0.95605,0.01318
				c0.14941,0.00977,0.23828-0.05078,0.23828-0.19043l0.11035-5.63135c0-0.14453-0.08984-0.19385-0.23926-0.19385l-0.94043-0.0166
				c-0.15039,0-0.23145,0.04297-0.23145,0.19824l-0.0332,1.35303c0,0.30859-0.17285,0.46094-0.50781,0.45068l-13.75684-0.25342
				l9.39648-4.57715c2.10254-1.02246,4.18945-1.96582,6.23926-2.87354c0.10547-0.05664,0.15332-0.14746,0.15332-0.21875
				l0.07031-3.37158c0-0.12695-0.09375-0.18555-0.22363-0.18555l-18.10742-0.32275c-0.32129-0.02637-0.49902-0.1377-0.49902-0.44531
				l0.03027-1.375c0-0.15332-0.07422-0.21338-0.2207-0.21338l-0.94922-0.02637c-0.14941,0-0.23145,0.07666-0.23145,0.20557
				l-0.11035,5.62842c0,0.1167,0.10547,0.16943,0.22168,0.17725h0.96289c0.12012,0.01514,0.21875-0.03418,0.21875-0.14893
				l0.03418-1.39795c0-0.30615,0.16699-0.44531,0.51172-0.44531l13.70703,0.24512l-9.49902,4.63037
				c-2.05469,0.99854-4.17676,1.9834-6.03027,2.78174c-0.14355,0.05273-0.21582,0.12451-0.21582,0.25049l-0.10547,5.42041
				c0,0.13525,0.08594,0.20313,0.22559,0.20313l0.95801,0.02197C510.53516,203.375,510.62012,203.31348,510.62012,203.17139z"/>
			<path style="fill:#FFFFFF;" d="M528.74316,220.41748c0.33691,0.10205,0.49902,0.13574,0.53223,0.45508l0.0498,0.79785
				c0.01758,0.12451,0.11621,0.17383,0.23926,0.17383l0.96387-0.07129c0.13184-0.01611,0.2041-0.06787,0.2041-0.20459
				l-0.36523-5.04248c0-0.14453-0.08105-0.20557-0.2168-0.19727l-0.96973,0.0625c-0.12207,0.0166-0.21582,0.07959-0.21582,0.21875
				l0.11523,1.30713c0.01172,0.28467-0.14648,0.4082-0.5,0.3457l-4.99316-1.03809l-0.3916-5.52637l4.80664-1.79688
				c0.32422-0.13135,0.51172-0.03662,0.5293,0.33789l0.09375,1.21875c0,0.13672,0.08105,0.18994,0.23828,0.17676l0.94824-0.06641
				c0.13965-0.01318,0.22559-0.08105,0.20996-0.21582l-0.44824-6.51855c-0.00879-0.14209-0.09863-0.19092-0.24805-0.17383
				l-0.94043,0.07324c-0.15039,0-0.22754,0.05518-0.22754,0.20264l0.06836,0.76904c0.00879,0.30371-0.14941,0.39502-0.47363,0.54346
				l-14.13867,5.37305c-1.07617,0.40576-2.3877,0.82959-3.58789,1.15332c-0.13184,0.03955-0.20117,0.11377-0.18164,0.19873
				l0.21875,3.19434c0,0.07422,0.08105,0.15234,0.21582,0.16064c2.38281,0.33398,4.0957,0.66943,6.16797,1.16943
				L528.74316,220.41748z M521.51953,212.33594l0.32813,4.50586l-7.84082-1.64844L521.51953,212.33594z"/>
			<path style="fill:#FFFFFF;" d="M599.34766,319.08154h-5.58203c-1.41504,0-2.8418-0.04053-4.68945-0.08838
				c-0.125,0-0.16699,0.04785-0.16699,0.18701l-0.0791,5.48242c0,0.125,0.05078,0.20264,0.14746,0.20264h1.91992
				c0.10059,0,0.14551-0.07764,0.14551-0.20264v-1.53662c0-1.56104,0.63867-1.69141,1.51172-1.69141h4.95703
				c-2.66016,5.64648-4.65332,10.41797-6.61426,15.93896c-0.08008,0.17285,0.07324,0.30322,0.14551,0.30322h3.00781
				c0.10742,0,0.1377-0.05078,0.16406-0.17432c1.10938-5.19678,2.79199-10.48486,5.30957-17.18262v-1.00732
				C599.52441,319.16064,599.47852,319.08154,599.34766,319.08154z"/>
			<path style="fill:#FFFFFF;" d="M640.17285,181.14307c1.98047-4.72266,3.92969-10.23779,4.43652-17.14209
				c1.13184-15.33301-2.55078-28.47168-8.70215-29.04102c-0.58008-0.03711-1.18164,0.07373-1.76563,0.44775
				c-4.0459,2.61523-6.05762,3.7749-10.20215,7.09131c-1.26465-5.3916-2.46484-10.23096-3.25293-13.28613
				c-0.38477-1.04883-1.06152-1.77002-1.92285-1.90771c-0.54883-0.09277-1.07813,0.0791-1.68457,0.52197
				c-7.98047,6.14209-30.75391,26.45654-31.40723,58.71826c-0.03809,1.396-0.01758,2.64941-0.00684,3.79834
				c-1.22363,0.18164-1.8252,0.39551-1.83301,0.47363c0.53711-4.04541-0.83789-7.70215-4.0127-9.41943
				c-2.00586-1.09521-4.43066-1.2373-6.86133-0.63916c-1.42383,0.31836-2.5752,0.80762-2.93359,0.92432
				c-0.84473,0.23633-1.67578-0.65283-1.49805-2.84717c0.20703-2.17383-0.98926-2.17383-1.66797-1.9209
				c-0.71484,0.27441-2.7207,2.4209-3.61426,3.03467c-0.87012,0.60498-2.02051,0.42188-2.12207-0.71973
				c-0.09082-1.17383-1.8877-0.43896-2.83105,0.54346c-0.93164,0.98535-7.03809,5.8501-7.03809,5.8501l0.63086,1.10889
				l7.47559-5.25684l0.98633,1.30273l-4.62012,3.68311l0.77441,0.88623l5.32715-3.06982l1.69531,1.93604l-0.31055,1.08301
				c-0.58398,0.85791-0.99121,2.11133-1.19043,3.4834c-2.24414,5.39014-1.15723,10.88184,2.96484,13.12305
				c3.03223,1.6333,7.00098,1.14941,10.54297-0.93408l-0.15625,1.12451l-0.1748,1.1377c0,0-5.5127,3.47168-7.01855,4.75928
				c-1.49121,1.26025-1.73926,1.98877-1.73926,1.98877s-1.34082,7.3999-1.9707,9.85352
				c-0.63379,2.43408-2.18555,6.3623-1.6582,7.34766c0.50977,0.95068,2.25391,1.88477,3.02344,1.35645
				c0.70605-0.49561,0.1748-1.35645,0.52344-2.95557c0.39355-1.5752,2.40625-10.76611,2.95508-12.72266
				c0.54492-1.93652,3.40234-4.39307,4.85938-5.43115c1.02539-0.69043,1.75-1.41797,2.34961-1.62598
				c0.28027,0.30078,0.58789,0.56592,0.95996,0.84912c-0.12207,0.30811-0.49902,0.5415-0.49902,0.5415
				s-2.42773,2.09668-3.43164,2.67139c-1.02051,0.60059-1.79492,2.36816-1.79492,2.36816s-1.17188,6.16846-1.5332,8.76855
				c-0.3916,2.62305-2.25977,7.25684-2.24023,9.04541c-0.01953,1.77393,2.21875,2.62598,2.81836,3.01367
				c0.61426,0.34229,0.69727-2.94727,1.47363-4.60742c0.74902-1.68018,2.96875-11.31543,3.32324-13.67676
				c0.34766-2.36719,1.10938-2.35107,2.07715-3.46582c0.95703-1.12988,3.71484-2.82861,3.71484-2.82861
				s1.47656,0.60791,2.25684,0.60791c0.79395,0.01904,0.69434,1.51514,0.69434,1.51514l-3.07813,2.17725
				c-1.02246,0.71729,0.12695,2.80029,0.54883,4.27979c0.45313,1.46631,1.18164,10.73242,1.33398,14.19336
				c0.13574,3.44043,2.02637,3.10889,2.93457,3.25195c0.88574,0.1499,0.4043-0.94727,0.38477-3.60938
				c0.01953-2.68115-0.80078-11.44775-1.14941-13.53467c-0.34277-2.08057-0.29492-3.35059,0.45313-3.98096
				c0.75781-0.63623,3.56641-2.85156,4.12207-3.01904c0.56055-0.15088,1.20996,0.83447,1.20996,0.83447
				s-1.32813,1.69922-2.90332,2.71289c-1.61719,0.99805-0.85742,3.02832-0.6543,4.44922
				c0.16895,1.43604,0.75977,12.57813,0.66504,14.98291c-0.06348,2.39404,1.35254,2.37793,2.4834,2.68506
				c1.15918,0.31934,0.91016-0.75342,1.01563-2.3833c0.11523-1.62451-1.04883-15.13965-0.89063-16.13916
				c0.15332-0.99658,2.07422-3.48389,3.65137-5.13037c1.55957-1.6377,2.58301-2.02051,3.55957-1.51172
				c0.98633,0.54004,0.53809,1.68896,0.53809,1.68896s-2.28027,4.69043-2.81152,5.7627
				c-0.54688,1.03223-1.4873,2.54443-1.20801,3.73535c0.27539,1.17725,1.99609,6.92529,2.55371,11.96826
				c0.5752,5.0415,1.41309,19.28711,1.31738,21.67871c-0.07715,2.39746,1.24219,5.03955,2.28613,5.81738
				c1.06543,0.81689,3.79297,3.80518,5.05762,3.24951c1.25391-0.56104-0.46582-3.12402-1.03711-3.72021
				c-0.55566-0.58936-2.23535-2.66211-2.5332-4.22998c-0.31055-1.55566-0.53809-9.94531-0.60645-14.78174
				c-0.07422-4.82617-1.59668-14.28711-2.06055-16.38721c-0.47949-2.10938-0.72852-6.72998,0.9082-8.86816
				c1.63574-2.13623,2.01953-0.29297,2.01953-0.29297l-0.86426,5.82373c-0.25195,1.84961,0.80273,7.11768,1.41895,10.76025
				c0.66797,3.67432,1.5498,19.31836,1.34863,21.5625c-0.20117,2.24902,0.36914,3.73584,1.16309,4.61768
				c0.7793,0.90869,2.46582,5.48926,3.4873,7.43848c1.03516,1.95654,2.96484,2.25293,4.39063,1.46973
				c1.41602-0.79395-2.20703-5.56885-3.52441-7.29785c-1.30762-1.72119-1.76563-5.4751-2.11328-10.37695
				c-0.21191-3.2915-0.0127-6.89014-0.12598-9.12646c1.03809,1.74951,2.66211,3.07959,4.57227,3.7251
				c-0.16406,0.84326-0.15332,1.71094,0.03223,2.60205c0.49902,2.27539,2.08496,4.07471,4.10254,4.93555
				c-0.39453,0.97168-0.52734,2.02148-0.35938,3.12354c0.35645,2.17676,1.83984,3.89307,3.75684,4.67285
				c2.15527,0.854,4.96875,0.9209,7.42285,0.62988c2.45215-0.32275,5.10449-1.10059,6.92188-2.44824
				c1.59961-1.25244,2.49414-3.2793,2.15137-5.43506c-0.16016-1.0249-0.58008-1.95264-1.20605-2.74463
				c0.62598-0.33154,1.1709-0.74072,1.65234-1.15186c1.80176-1.52197,2.68359-3.95313,2.14844-6.38867
				c-0.29785-1.46973-1.05664-2.72705-2.08496-3.68506c0.96484-0.71973,1.81738-1.46045,2.50293-2.24902
				c1.8125-2.06396,2.4873-4.99902,1.55762-7.80371c-0.72949-2.1333-2.27344-3.83496-4.18359-4.79883l0.67871-0.82715
				c1.68359-2.2251,2.13281-5.30273,0.86133-8.06836c-1.37402-3.04443-4.34277-4.89941-7.28027-5.49121
				c1.03613-2.31348,0.86328-5.14697-0.82324-7.4209c-2.08887-2.88379-7.07324-4.85449-10.80273-3.89551
				C630.26465,195.45557,637.77148,186.83447,640.17285,181.14307z M588.2832,186.66064
				c0.58008-28.25,18.78027-47.08105,27.9209-54.78516l2.18066-1.84619l0.67383,2.79248
				c0.75684,3.08936,1.71289,7.10596,2.68652,11.51074c-10.49219,8.99268-23.05176,23.9165-26.24121,45.44775l-0.12793,0.90869
				c-2.89453-0.52246-5.27246-0.6377-7.09277-0.60107C588.2832,189.09326,588.25684,187.94922,588.2832,186.66064z
				 M564.0625,181.47559c1.02832-0.60156,3.30371-0.86768,2.95215,0.61572c-0.3457,1.45947-0.30469,1.96924-0.30469,1.96924
				l-2.03613-0.33594C564.67383,183.72461,563.06934,182.07813,564.0625,181.47559z M567.50391,199.49707
				c-3.80176-2.04443-4.46484-6.82227-1.44629-11.42871c3.03027-4.59424,8.59668-6.67041,12.39453-4.60986
				c3.81348,2.07617,4.42969,7.48779,1.38477,12.09766C576.79785,200.15039,571.31348,201.58643,567.50391,199.49707z
				 M607.0957,236.34033l-0.10645-1.74805l0.75293,0.49414C607.4834,235.46729,607.25781,235.88867,607.0957,236.34033z
				 M631.59082,257.54639c-1.00488,0.78125-2.8877,1.42529-5.03711,1.67773c-2.15918,0.29785-4.1709,0.15332-5.38184-0.3457
				c-0.66895-0.26465-1.19629-0.86621-1.29688-1.62109c-0.18359-1.11865,0.60547-2.1665,2.34961-2.29492
				c1.00195,0.12842,2.28223,0.15527,3.63574-0.04248c1.37402-0.16406,2.58594-0.49561,3.50293-0.87842l0.56934-0.16943
				c1.16309-0.12354,2.22949,0.65625,2.42383,1.77637C632.45508,256.40527,632.14844,257.11084,631.59082,257.54639z
				 M634.05664,248.35254c-1.45801,1.25977-4.30859,2.39941-7.6377,2.99902c-3.3252,0.61377-6.41309,0.55029-8.30469-0.11475
				c-0.97363-0.34229-1.80078-1.16064-2.03223-2.2666c-0.33984-1.62646,0.73242-3.16992,2.36035-3.46973
				c0.30566-0.04932,0.58984-0.06006,0.875-0.04932c1.60742,0.15186,3.6123,0.06543,5.7666-0.31934
				c2.12891-0.37939,4.05664-0.99854,5.45605-1.69141c0.25684-0.13623,0.53613-0.21533,0.8291-0.27881
				c1.6582-0.30859,3.27734,0.76367,3.62109,2.40771C635.23145,246.63281,634.82422,247.67871,634.05664,248.35254z
				 M637.07031,232.25146c0.52148,1.50098,0.14453,3.06396-0.81152,4.13818c-1.8916,2.12549-5.74512,4.34131-10.45215,5.86328
				c-4.69336,1.49951-9.14551,1.97217-11.9375,1.34082c-1.43945-0.30518-2.66211-1.36719-3.18555-2.86279
				c-0.75879-2.25977,0.43652-4.63916,2.65918-5.36621c0.40039-0.12695,0.81738-0.19385,1.21387-0.22021
				c2.37988-0.05127,5.28711-0.56982,8.3457-1.54688c3.03711-0.98877,5.69531-2.27588,7.6377-3.58301
				c0.33984-0.22119,0.70313-0.40967,1.08594-0.54736C633.875,228.75537,636.32715,229.99219,637.07031,232.25146z
				 M634.57422,218.90723c0.65723,1.45166,0.42676,3.10645-0.46973,4.28369c-1.74805,2.31982-5.56836,4.89063-10.32715,6.85059
				c-4.75098,1.91992-9.37012,2.76563-12.32031,2.37842c-1.52148-0.20361-2.93457-1.17725-3.59766-2.65283
				c-1.00195-2.20752,0.03125-4.75635,2.28223-5.67529c0.37891-0.18213,0.80078-0.29053,1.22266-0.31934
				c2.46191-0.28516,5.46582-1.05664,8.56348-2.31006c3.08691-1.25439,5.73438-2.78711,7.6416-4.30664
				c0.33008-0.2373,0.7041-0.45605,1.08691-0.62158C630.93848,215.61475,633.55566,216.67969,634.57422,218.90723z
				 M620.82617,206.44531c0.21484-0.26563,0.47266-0.50537,0.77344-0.71387c1.69531-1.15234,4.0625-0.71338,5.27637,0.9624
				c0.81152,1.10059,0.9082,2.51025,0.40723,3.64795c-1.03516,2.15625-3.6543,4.92285-7.16113,7.30957
				c-3.47168,2.37012-7.05762,3.84033-9.5127,4.01904c-1.31836,0.08643-2.625-0.46387-3.71875-2.06299
				c-0.51367-1.20557-0.53418-2.52246,0.20508-3.71289c0.23438-0.3457,0.56445-0.66406,0.94141-0.93848
				c0.28027-0.1748,0.59766-0.35254,0.93359-0.44434c1.93848-0.6377,4.1875-1.76563,6.47461-3.30029
				C617.70703,209.66162,619.57129,208,620.82617,206.44531z M604.25488,214.23193c-1.19043,0.4375-1.73535-1.06445-1.92969-2.1001
				c0.18945-0.75488,0.06543-1.34277-0.55176-1.11621c-0.49902,0.1958-1.53613,0.64258-2.59082-0.38184
				c-0.86816-0.83984-1.29297-1.97314-0.83496-3.01904c-2.14844,0.75293-6.58984,2.58496-10.7373,0.98486
				c-1.15527-0.42041-1.30664-1.98535-0.87402-3.02051c-2.13086,0.7666-4.06445,1.16699-5.58691,1.1377
				c-1.33008-0.02295-4.50684-0.29443-3.17676-4.38525c1.4707-4.60205,3.64648-7.60938,8.30273-8.99072
				c2.91211-0.86865,6.39258,0.05029,7.89063,0.23193c-0.9668,8.39795-0.66211,10.71582,6.69727,11.90039
				c6.55273,1.0752,13.02539-2.67041,17.96777-1.62256C622.0918,205.16797,611.9707,211.36035,604.25488,214.23193z
				 M599.82813,202.26172c-0.18945-1.45313,0.16016-3.90771,1.44629-8.2417c6.95898-23.89014,27.34766-32.50342,37.23828-35.31934
				l0.80273-0.25049l-0.88184,0.2168c-10.10742,2.22266-31.17578,9.56055-39.46973,32.77734
				c-0.69727,1.92285-1.16113,3.4751-1.47461,4.72607c0.04883-1.48828,0.24316-3.41895,0.63672-5.95605
				c4.0918-27.88867,24.55859-44.3501,34.65527-50.89258l3.05078-1.83008c1.25879,0.12891,3.07617,1.87012,4.58203,7.0957
				c1.41309,4.83398,2.17676,11.70801,1.625,19.18164c-0.50684,6.7085-1.66016,10.27783-4.49512,16.25928
				C633.10254,189.42676,616.17773,203.57715,599.82813,202.26172z"/>
			<path style="fill:#FFFFFF;" d="M573.75293,185.96582c-2.55957-0.30518-4.80469,1.3042-5.01953,3.57617
				c-0.20703,2.24561,1.69531,4.33838,4.26172,4.63428c2.56445,0.26611,4.81836-1.34863,5.04102-3.59766
				C578.21387,188.30811,576.3125,186.24023,573.75293,185.96582z M572.71582,191.07617
				c-0.95898-0.11328-1.6543-0.89648-1.58887-1.74414c0.06836-0.86914,0.92383-1.46191,1.89746-1.35645
				c0.95117,0.10791,1.68652,0.88232,1.62012,1.73877C574.5625,190.57861,573.68652,191.17822,572.71582,191.07617z"/>
		</g>
	</g>
</g>
<g>
</g>
<g>
</g>
<g>
</g>
<g>
</g>
<g>
</g>
<g>
</g>
</svg>
